HIERARCHY
ROOT Hips
{
	OFFSET -3.958830 18.904000 13.208200
	CHANNELS 6 Xposition Yposition Zposition Zrotation Yrotation Xrotation 
	JOINT LHipJoint
	{
		OFFSET 0.000000 0.000000 0.000000
		CHANNELS 3 Zrotation Yrotation Xrotation
		JOINT LeftUpLeg
		{
			OFFSET 1.800000 -1.400000 0.085000
			CHANNELS 3 Zrotation Yrotation Xrotation
			JOINT LeftLeg
			{
				OFFSET 2.215000 -6.000000 0.000000
				CHANNELS 3 Zrotation Yrotation Xrotation
				JOINT LeftFoot
				{
					OFFSET 2.500000 -6.900000 0.000000
					CHANNELS 3 Zrotation Yrotation Xrotation
					JOINT LeftToeBase
					{
						OFFSET 0.200000 -0.500000 1.950000
						CHANNELS 3 Zrotation Yrotation Xrotation
						End Site
						{
							OFFSET 0.000000 0.000000 0.000000
						}
					}
				}
			}
		}
	}
	JOINT RHipJoint
	{
		OFFSET 0.000000 0.000000 0.000000
		CHANNELS 3 Zrotation Yrotation Xrotation
		JOINT RightUpLeg
		{
			OFFSET -1.800000 -1.400000 0.085000
			CHANNELS 3 Zrotation Yrotation Xrotation
			JOINT RightLeg
			{
				OFFSET -2.215000 -6.000000 0.000000
				CHANNELS 3 Zrotation Yrotation Xrotation
				JOINT RightFoot
				{
					OFFSET -2.500000 -6.900000 0.000000
					CHANNELS 3 Zrotation Yrotation Xrotation
					JOINT RightToeBase
					{
						OFFSET -0.200000 -0.500000 1.950000
						CHANNELS 3 Zrotation Yrotation Xrotation
						End Site
						{
							OFFSET 0.000000 0.000000 0.000000
						}
					}
				}
			}
		}
	}
	JOINT LowerBack
	{
		OFFSET 0.000000 0.000000 0.000000
		CHANNELS 3 Zrotation Yrotation Xrotation
		JOINT Spine
		{
			OFFSET -0.087000 1.940000 -0.288900
			CHANNELS 3 Zrotation Yrotation Xrotation
			JOINT Spine1
			{
				OFFSET 0.000000 1.950000 0.060000
				CHANNELS 3 Zrotation Yrotation Xrotation
				JOINT Neck
				{
					OFFSET 0.000000 0.000000 0.000000
					CHANNELS 3 Zrotation Yrotation Xrotation
					JOINT Neck1
					{
						OFFSET 0.000000 1.600000 0.340000
						CHANNELS 3 Zrotation Yrotation Xrotation
						JOINT Head
						{
							OFFSET 0.000000 1.667000 -0.240000
							CHANNELS 3 Zrotation Yrotation Xrotation
							End Site
							{
								OFFSET 0.000000 0.000000 0.000000
							}
						}
					}
				}
				JOINT LeftShoulder
				{
					OFFSET 0.000000 0.000000 0.000000
					CHANNELS 3 Zrotation Yrotation Xrotation
					JOINT LeftArm
					{
						OFFSET 2.700000 1.550000 -0.730000
						CHANNELS 3 Zrotation Yrotation Xrotation
						JOINT LeftForeArm
						{
							OFFSET 5.450000 0.000000 0.000000
							CHANNELS 3 Zrotation Yrotation Xrotation
							JOINT LeftHand
							{
								OFFSET 3.450000 0.000000 0.000000
								CHANNELS 3 Zrotation Yrotation Xrotation
								JOINT LeftHandIndex1
								{
									OFFSET 0.750000 0.000000 0.000000
									CHANNELS 3 Zrotation Yrotation Xrotation
									End Site
									{
										OFFSET 0.000000 0.000000 0.000000
									}
								}
							}
						}
					}
				}
				JOINT RightShoulder
				{
					OFFSET 0.000000 0.000000 0.000000
					CHANNELS 3 Zrotation Yrotation Xrotation
					JOINT RightArm
					{
						OFFSET -2.700000 1.550000 -0.730000
						CHANNELS 3 Zrotation Yrotation Xrotation
						JOINT RightForeArm
						{
							OFFSET -5.450000 0.000000 0.000000
							CHANNELS 3 Zrotation Yrotation Xrotation
							JOINT RightHand
							{
								OFFSET -3.450000 0.000000 0.000000
								CHANNELS 3 Zrotation Yrotation Xrotation
								JOINT RightHandIndex1
								{
									OFFSET -0.750000 0.000000 0.000000
									CHANNELS 3 Zrotation Yrotation Xrotation
									End Site
									{
										OFFSET 0.000000 0.000000 0.000000
									}
								}
							}
						}
					}
				}
			}
		}
	}
}
MOTION
Frames: 14
Frame Time: 0.016667
0.338930 14.359910 -3.867830 -36.970985 9.326504 36.296711 -16.584095 9.852725 7.222546 -0.910272 -25.792349 -61.856200 -13.210287 8.683950 34.818325 0.631932 5.168911 2.738170 0.738470 0.800590 0.762350 17.978384 -5.271067 4.221469 21.890854 13.234682 -61.423667 -47.516189 2.100498 7.086036 -0.952042 -4.562050 2.680977 0.130730 -0.198480 0.104820 -1.056442 -7.300180 -10.353395 -14.990939 11.735648 59.759030 22.295581 2.723763 19.405130 -6.121213 7.322742 -13.363452 10.126058 5.497738 46.667997 0.357710 16.175650 -10.038450 -0.250370 -23.865247 3.530474 -8.064996 -27.887638 -1.872524 21.824816 1.392933 -1.845689 -4.022943 3.179075 0.070100 -0.020740 0.193540 0.044750 10.938428 19.181120 10.519338 37.823981 -0.362056 -6.123885 -13.775817 15.348316 -2.461915 2.448441 -1.735734 0.379830 -0.073270 -0.425440 -0.147040 
0.329700 14.305000 -3.823290 -38.753725 7.952377 34.052767 -16.533511 10.312425 6.798048 -1.170526 -23.324967 -57.937703 -15.056404 8.341968 30.376924 0.512825 4.641163 2.918965 0.733530 0.780940 0.785550 17.930217 -5.537449 4.222453 23.109223 12.790047 -58.049865 -46.113107 0.975728 3.866095 -0.901833 -4.184739 2.819813 0.126420 -0.224450 0.068620 -1.063837 -7.431984 -10.169600 -15.718803 12.525488 59.380430 22.391807 3.134359 20.363939 -6.161725 6.641962 -14.030464 8.870574 5.726321 49.125898 0.246520 16.608890 -9.866400 -0.953118 -24.512238 4.320881 -9.525614 -26.663261 -2.086350 22.186873 2.027803 -1.774477 -3.992419 3.135138 0.116310 -0.052470 0.210820 0.041150 11.668542 20.512471 11.059120 38.396624 -0.797467 -5.511558 -13.616032 11.468133 -1.834374 2.518885 -1.692624 0.346540 -0.046280 -0.434750 -0.172450 
0.343370 14.202080 -3.781010 -40.404462 5.435587 31.137987 -16.452979 10.675437 6.491512 -3.515943 -21.530456 -54.015430 -14.390127 7.986088 28.793397 0.432291 4.324366 3.027696 0.769820 0.804520 0.810270 17.916135 -5.885273 4.194002 22.508340 11.689381 -54.753860 -43.441143 1.911065 6.158051 -0.847605 -3.832602 2.936824 0.147090 -0.251920 0.045260 -1.189034 -7.287000 -9.967048 -16.070274 13.064915 59.444029 21.053097 3.419234 21.235385 -6.036694 5.371529 -14.674169 6.165204 6.698755 51.261104 1.513850 16.381220 -9.873500 -1.520312 -25.047055 5.084951 -11.285267 -25.323113 -2.315134 22.504774 2.365385 -1.769232 -3.933237 3.127798 0.168190 -0.097920 0.236670 0.055830 11.885180 21.997093 11.777094 38.217809 -1.553806 -5.246224 -12.800001 9.471122 -1.417348 2.546454 -1.661788 0.331010 -0.024190 -0.457190 -0.184600 
0.357220 14.169330 -3.725850 -42.330585 5.239183 29.079111 -16.388912 10.914853 6.233531 -3.582605 -19.840206 -51.925142 -12.770600 7.950779 29.713892 0.403500 4.384687 2.996235 0.747620 0.778780 0.783720 17.920556 -6.106431 4.228971 23.038834 11.455897 -51.852601 -44.076225 2.682160 8.187427 -0.891265 -3.997573 2.892989 0.136980 -0.259550 0.018130 -1.292551 -7.139426 -9.867128 -14.383948 12.723799 60.412820 20.130929 4.018337 22.300543 -5.714329 4.535765 -16.043714 4.461801 6.710654 52.756259 2.266410 15.505310 -9.488550 -1.550217 -27.304513 5.983082 -11.838622 -23.875377 -3.188028 23.500791 3.223917 -1.766102 -3.938005 3.112135 0.206300 -0.125300 0.242940 0.050330 11.356597 24.836512 13.272527 38.604506 -3.182084 -5.459734 -12.761107 8.467689 -1.133103 2.540561 -1.635220 0.308050 0.002170 -0.436820 -0.191040 
0.344980 14.187430 -3.663360 -43.629383 5.708205 27.981545 -16.389484 11.076116 6.133442 -1.982742 -18.857778 -51.782342 -10.614268 8.380169 33.751903 0.486652 4.969022 2.767087 0.769490 0.828070 0.791190 17.899898 -6.176644 4.203984 22.394064 11.170500 -49.988917 -43.359442 3.074892 9.537338 -0.875731 -3.992371 2.901167 0.165040 -0.276380 0.006680 -1.261234 -7.185798 -9.786024 -14.374256 12.830798 59.766302 20.307326 4.031943 23.296793 -5.748213 4.694758 -16.262925 5.079942 6.370979 53.003521 2.045550 15.764900 -9.123710 -1.957576 -27.771024 6.126994 -12.032812 -23.384756 -3.431009 23.784360 3.788482 -1.675939 -3.956943 3.137358 0.174230 -0.117670 0.237070 0.045000 11.702445 25.463584 13.454618 36.153526 -2.287480 -4.532649 -11.839873 7.758520 -1.032090 2.553437 -1.640320 0.325660 -0.013240 -0.451260 -0.187260 
0.335530 14.216000 -3.630020 -46.003735 3.630740 27.318284 -16.380806 11.018592 5.963134 2.031688 -17.029435 -52.923081 -10.953753 10.189694 38.372227 0.626535 6.203352 2.313361 0.795250 0.860680 0.821550 17.925431 -6.069255 4.426599 22.540735 12.620772 -48.374507 -43.096765 4.166998 11.875275 -0.892062 -4.115247 2.849355 0.202270 -0.290640 0.013050 -1.315549 -6.949450 -9.770047 -14.869608 14.383093 57.905464 19.311339 5.160881 24.443105 -5.578540 5.466660 -16.047574 7.146923 5.778810 52.842524 1.136460 16.673750 -9.120860 -1.221593 -28.071546 6.198905 -12.247981 -23.060869 -3.402580 23.824465 4.780896 -1.537052 -4.012197 3.145192 0.161240 -0.093970 0.227050 0.027570 10.282838 26.169161 13.501344 35.811124 0.085415 -3.546465 -11.989120 6.624303 -0.994167 2.551744 -1.673059 0.323560 -0.031590 -0.454410 -0.210260 
0.324090 14.260160 -3.603670 -48.133912 2.153714 27.083200 -16.397046 10.906008 5.968924 3.854054 -16.090715 -54.689439 -6.669159 10.909570 46.331583 0.765301 7.566729 1.819982 0.786590 0.826800 0.861430 17.947398 -5.991369 4.502801 21.820221 13.347257 -46.686975 -40.972842 5.442631 16.242850 -0.884542 -4.161076 2.809797 0.197030 -0.313170 0.031070 -1.341756 -6.678212 -9.770223 -14.937221 15.599324 56.502737 18.050155 6.350037 24.876125 -4.817644 6.075647 -15.979377 8.996197 5.383724 52.529569 -0.298610 17.705230 -9.805040 0.238938 -28.284221 6.614315 -12.573782 -22.123565 -3.356530 23.830354 4.326552 -1.590253 -4.048057 3.134051 0.182590 -0.080770 0.221170 -0.026780 7.152735 27.006895 13.521887 36.299441 2.842806 -3.018933 -12.068630 7.450951 -1.157714 2.507256 -1.666728 0.310630 -0.050770 -0.417380 -0.258690 
0.306820 14.323000 -3.572150 -49.923141 0.396296 27.278906 -16.448613 10.935238 5.980371 4.758652 -15.356822 -55.908115 -1.496325 11.054578 55.327825 0.985773 9.026828 1.306180 0.832600 0.878330 0.913330 17.924126 -5.959379 4.427673 19.952707 13.480314 -44.349005 -37.414815 6.875046 23.006823 -0.950145 -4.362293 2.716276 0.219450 -0.363790 0.077510 -1.263618 -6.618314 -9.716293 -16.506220 17.622309 54.256564 17.686297 7.314843 25.305741 -4.109160 6.160761 -16.059333 10.024700 5.864418 53.206474 -1.726550 19.418500 -11.684220 2.215308 -28.225196 7.201653 -13.993605 -20.877785 -3.341946 24.484873 4.257072 -1.554749 -4.042073 3.161319 0.226630 -0.087220 0.278610 -0.042230 3.709129 28.157671 13.519028 35.057279 7.074969 -0.973316 -10.117525 5.203997 -0.726954 2.537104 -1.623598 0.333350 -0.082540 -0.426120 -0.284430 
0.297140 14.403210 -3.568270 -52.615120 0.689232 28.365505 -16.449832 10.801736 6.097353 8.808582 -13.836177 -58.141212 0.317278 12.107673 61.319020 1.192654 10.222793 0.870957 0.878950 0.915970 0.971300 17.952891 -5.898101 4.447804 16.917626 14.293069 -44.077932 -29.337196 6.862007 33.631427 -0.994462 -4.632789 2.574743 0.213900 -0.464020 0.122000 -1.311803 -6.346732 -9.772939 -15.620582 17.210706 53.325195 16.755335 7.842948 24.538206 -3.582070 5.232107 -15.995754 8.017453 6.788522 53.105635 -3.142780 19.826810 -13.697350 3.520964 -27.681845 7.716731 -15.794261 -20.366530 -3.296768 25.618227 4.588518 -1.508532 -3.976605 3.260561 0.259640 -0.136150 0.332830 -0.086740 1.578461 28.621949 13.214970 35.348026 8.403392 -2.667843 -14.268064 9.905019 -1.856741 2.470531 -1.721893 0.392190 -0.172630 -0.439080 -0.305780 
0.298820 14.486540 -3.566620 -54.953764 -0.529363 29.410359 -16.406627 10.775284 6.150901 11.380934 -11.829396 -59.235931 1.940025 12.991834 65.436295 1.359933 10.987290 0.585052 0.940290 0.987680 1.000150 17.983499 -6.114110 4.285977 15.150780 14.229774 -41.298264 -23.549254 5.531616 38.047789 -1.007467 -4.610113 2.559664 0.220680 -0.556490 0.158370 -1.447001 -5.851630 -9.733058 -15.531296 17.542306 52.235900 14.950983 8.882226 23.813640 -3.166739 4.130732 -16.230836 5.593053 7.471684 54.084192 -3.415390 19.458550 -15.224500 4.260857 -27.379692 8.249717 -15.604807 -19.245940 -3.525257 26.038488 4.912109 -1.387184 -3.900469 3.334023 0.288980 -0.195390 0.400390 -0.091650 0.241767 29.712399 12.993499 35.315045 10.266319 -4.575560 -19.631556 12.769097 -3.372237 2.443477 -1.840426 0.461600 -0.247250 -0.473420 -0.297680 
0.279410 14.606750 -3.557570 -55.686573 -0.963127 30.890150 -16.384944 10.809888 6.418490 13.561766 -10.595940 -60.662958 0.225141 15.076984 66.648942 1.452516 11.524275 0.381576 0.955710 0.992130 1.013370 17.973228 -6.460214 3.828408 13.133151 12.756194 -37.719701 -17.560386 3.278605 37.990891 -0.884763 -4.040477 2.740372 0.202610 -0.624840 0.158130 -1.486359 -5.569423 -9.646570 -16.725499 18.471315 51.173516 14.511520 9.456855 22.854427 -3.315996 2.790563 -16.692671 2.563809 8.545723 54.637989 -3.078170 18.961690 -17.135460 4.710839 -27.244916 8.700704 -14.436989 -18.158787 -3.805738 26.109213 5.047009 -1.322512 -3.844026 3.343397 0.341260 -0.259340 0.434700 -0.122360 0.486796 30.837391 12.609857 34.598103 11.787872 -8.067447 -26.855840 16.415985 -6.043563 2.407093 -1.925666 0.484910 -0.281220 -0.468600 -0.311280 
0.282690 14.739400 -3.570620 -54.086213 -1.249109 33.565196 -16.400011 10.883549 6.754236 12.837138 -11.316420 -63.642870 3.682448 13.438189 68.130873 1.454657 11.423343 0.413262 0.933620 0.969790 0.989110 17.939592 -6.784382 3.268136 9.222322 10.809113 -36.013041 -11.478448 0.876600 37.081120 -0.737488 -3.570717 2.890851 0.181340 -0.613480 0.158870 -1.438497 -5.532123 -9.514738 -20.224748 20.237935 49.141495 15.193698 9.155873 22.364750 -3.763045 1.676743 -17.162935 0.574168 9.777686 51.972567 -2.166230 18.610520 -18.264390 6.748078 -27.086649 8.848114 -12.575903 -17.269469 -3.859636 25.192259 5.579784 -1.128006 -3.894692 3.321079 0.339860 -0.274350 0.427780 -0.136140 -0.271087 31.518944 12.368887 31.414509 13.857257 -8.883292 -28.719620 17.747581 -6.985865 2.413789 -1.930090 0.490930 -0.280480 -0.446960 -0.296860 
0.312920 14.852820 -3.578340 -52.365993 -1.440688 35.616586 -16.392857 11.048032 6.959395 10.494950 -12.304644 -65.253978 3.593070 12.417962 64.202691 1.244640 10.643368 0.634752 0.932680 0.963350 0.967200 17.903329 -7.097268 2.816195 6.056119 9.170894 -33.457782 -6.360880 -1.067376 36.812610 -0.681175 -3.514012 2.898811 0.196500 -0.586490 0.162480 -1.405884 -5.668151 -9.346985 -23.073977 21.957984 48.115432 16.276241 8.736604 22.863509 -4.383875 0.351247 -17.494530 -1.928544 10.757202 48.223440 -1.453070 17.608740 -20.002820 9.026010 -26.911793 8.642005 -10.838718 -17.161413 -3.803710 24.209330 6.412740 -1.027876 -3.973834 3.284072 0.350340 -0.279570 0.413320 -0.135640 -1.087432 32.262822 12.180271 26.729097 14.945215 -11.077276 -32.704660 19.244886 -8.720789 2.400960 -1.981444 0.474980 -0.252400 -0.421200 -0.289540 
0.325640 14.945730 -3.588550 -50.442704 -0.524536 38.262645 -16.413456 10.939814 7.334833 8.423849 -14.087186 -68.837676 2.682041 11.577053 60.255254 1.025104 9.904068 0.868884 0.889240 0.884850 0.946900 17.896366 -7.215437 2.459127 4.221479 7.969481 -30.840810 -2.115737 -3.030760 38.256557 -0.711759 -3.934400 2.745627 0.186790 -0.547020 0.154350 -1.371418 -5.758461 -9.334672 -24.957960 21.852139 47.409038 16.385394 7.617388 22.366006 -4.356266 -1.234561 -17.424061 -5.010679 11.669811 45.258476 -2.496570 16.719400 -21.108700 10.667840 -26.102268 8.515755 -10.382414 -16.812547 -3.991789 24.586667 7.179505 -0.966008 -4.058765 3.230081 0.370890 -0.273620 0.377580 -0.153490 -2.569136 32.392403 11.423379 22.391534 16.278749 -13.536120 -36.710429 23.792310 -11.389378 2.314004 -1.940735 0.422270 -0.203630 -0.366430 -0.305790 
